<?xml version="1.0" encoding="UTF-8"?>
<svg width="967px" height="1000px" viewBox="0 0 967 1000" version="1.1" xmlns="http://www.w3.org/2000/svg" xmlns:xlink="http://www.w3.org/1999/xlink">
    <!-- Generator: Sketch 52.5 (67469) - http://www.bohemiancoding.com/sketch -->
    <title>Combined Shape</title>
    <desc>Created with Sketch.</desc>
    <g id="Page-1" stroke="none" stroke-width="1" fill="none" fill-rule="evenodd">
        <g id="Artboard" transform="translate(-16.000000, 0.000000)" fill="#000000">
            <path d="M944.135236,764.774777 C949.898407,755.942347 954.923961,741.910868 958.902644,723.306464 C842.589485,757.508732 708.630921,771.512957 499.5,771.512957 C290.369079,771.512957 156.410515,757.508732 40.0973557,723.306464 C44.0753212,741.910868 49.1015927,755.942347 54.8647636,764.774777 C107.727793,845.795738 177.924822,904.680041 205.652189,926.236478 C245.240265,957.014072 291.258812,970.862663 381.508547,979.157186 C431.723905,983.773144 465.908291,985.655818 499.5,985.655818 C533.091709,985.655818 567.276095,983.773144 617.491453,979.157186 C707.741188,970.862663 753.759735,957.014072 793.347811,926.236478 C821.075178,904.680758 891.271489,845.797173 944.135236,764.774777 Z M45.0698126,419.379063 C26.9106581,544.016379 27.0541634,645.604029 37.2250981,707.96034 L37.3571229,707.52356 C153.841053,742.785146 287.732888,757.168774 499.5,757.168774 C711.267112,757.168774 845.158947,742.785146 961.642877,707.52356 L961.775619,707.959623 C971.945837,645.603312 972.089342,544.016379 953.930187,419.379063 C930.269759,256.983556 881.500217,96.5546366 879.151753,88.886954 C869.35752,64.5412908 856.334418,49.5344074 836.956904,40.2515699 C818.825733,31.5654504 796.5939,28.6564503 770.851928,25.2877191 C767.577138,24.858828 764.250686,24.4234821 760.874007,23.9694887 C704.759866,16.4115392 616.852137,13.2816386 499.584668,14.6608317 L499.5,14.6615489 L499.416049,14.6608317 C382.151451,13.279487 294.241569,16.4115392 238.125993,23.9694887 C234.748596,24.4234821 231.422862,24.858828 228.14879,25.2877191 C202.4061,28.6564503 180.174267,31.5654504 162.043096,40.2515699 C142.665582,49.5344074 129.643198,64.5398564 119.848247,88.8855196 C117.505523,96.5345547 68.731676,256.973515 45.0698126,419.379063 Z M968.13075,417.312066 C991.758889,579.485238 986.834506,725.58934 956.155236,772.611004 C902.106853,855.448656 830.455399,915.560103 802.158316,937.559058 C760.122757,970.239408 712.142494,984.862585 618.805243,993.441123 C568.124211,998.099396 533.559536,1000 499.5,1000 C465.440464,1000 430.875789,998.099396 380.194757,993.441123 C286.857506,984.862585 238.877243,970.239408 196.841684,937.559058 C168.544601,915.559386 96.8924291,855.447939 42.8447637,772.611004 C12.1654935,725.58934 7.2411108,579.485238 30.8692505,417.312066 C55.1603844,250.588202 105.713697,86.0209864 106.221705,84.3778603 L106.41472,83.831347 C117.506241,56.114801 133.212173,38.1558849 155.840799,27.3159864 C176.038445,17.6401184 199.323608,14.5926969 226.285374,11.0647453 C229.542226,10.638723 232.850739,10.2055287 236.20948,9.753687 C292.999531,2.10393465 381.584605,-1.07043287 499.5,0.31664955 C617.415395,-1.06899845 706.000469,2.10465186 762.79052,9.753687 C766.149261,10.2055287 769.457774,10.638723 772.714626,11.0647453 C799.676392,14.5926969 822.961555,17.6401184 843.159201,27.3159864 C865.787827,38.1558849 881.493042,56.1140838 892.58528,83.831347 L892.778295,84.3778603 C893.286303,86.0209864 943.840333,250.588202 968.13075,417.312066 Z M194.123243,66.9747286 C192.156604,66.7225599 190.772486,64.9629823 191.031065,63.0450987 C191.290363,61.1279156 193.091799,59.7823151 195.060594,60.0295805 C196.694672,60.2390207 360.034946,80.995312 496.000285,80.995312 C631.964906,80.995312 795.305899,60.2390207 796.939977,60.0295805 C798.907335,59.7809141 800.710208,61.1272151 800.968787,63.0450987 C801.228085,64.9629823 799.843249,66.7225599 797.877327,66.9747286 C796.238221,67.1848693 632.443996,88 496.000285,88 C359.556574,88 195.761631,67.1848693 194.123243,66.9747286 Z" id="Combined-Shape"></path>
        </g>
    </g>
</svg>