<?xml version="1.0" encoding="utf-8"?>
<svg viewBox="86.1659 8.2648 125 108.3792" xmlns="http://www.w3.org/2000/svg">
  <g transform="matrix(0.10000000149011612, 0, 0, -0.10000000149011612, -11.101548194885254, 107.6773681640625)" fill="#000000" stroke="none">
    <path d="M 1101.107 984.126 C 1088.107 976.126 1086.107 937.126 1086.107 729.126 C 1086.107 521.126 1088.107 482.126 1101.107 474.126 C 1110.107 468.126 1301.107 464.126 1568.107 464.126 C 1965.107 464.126 2021.107 466.126 2035.107 480.126 C 2049.107 493.126 2051.107 530.126 2051.107 725.126 C 2051.107 865.126 2047.107 963.126 2041.107 975.126 C 2031.107 993.126 2015.107 994.126 1573.107 994.126 C 1303.107 994.126 1110.107 990.126 1101.107 984.126 Z M 1921.107 914.126 C 1932.107 903.126 1941.107 885.126 1941.107 875.126 C 1941.107 855.126 1906.107 824.126 1884.107 824.126 C 1866.107 824.126 1831.107 861.126 1831.107 879.126 C 1831.107 887.126 1840.107 903.126 1851.107 914.126 C 1862.107 925.126 1878.107 934.126 1886.107 934.126 C 1894.107 934.126 1910.107 925.126 1921.107 914.126 Z M 1379.107 794.126 C 1410.107 728.126 1439.107 675.126 1444.107 677.126 C 1448.107 678.126 1480.107 731.126 1514.107 794.126 L 1576.107 909.126 L 1644.107 912.126 C 1714.107 915.126 1733.107 902.126 1686.107 884.126 L 1661.107 874.126 L 1661.107 715.126 C 1661.107 557.126 1661.107 555.126 1684.107 552.126 C 1696.107 550.126 1705.107 545.126 1704.107 539.126 C 1702.107 533.126 1659.107 529.126 1601.107 529.126 C 1543.107 529.126 1500.107 533.126 1499.107 539.126 C 1497.107 545.126 1506.107 550.126 1519.107 552.126 C 1540.107 555.126 1541.107 559.126 1541.107 666.126 C 1541.107 727.126 1539.107 775.126 1536.107 772.126 C 1533.107 769.126 1504.107 715.126 1471.107 653.126 C 1439.107 590.126 1406.107 538.126 1399.107 537.126 C 1391.107 535.126 1366.107 577.126 1336.107 642.126 C 1309.107 701.126 1282.107 754.126 1276.107 761.126 C 1267.107 772.126 1266.107 740.126 1270.107 577.126 C 1271.107 561.126 1277.107 554.126 1291.107 554.126 C 1302.107 554.126 1311.107 547.126 1311.107 539.126 C 1311.107 527.126 1298.107 524.126 1252.107 524.126 C 1186.107 524.126 1168.107 535.126 1206.107 552.126 C 1231.107 564.126 1231.107 564.126 1231.107 707.126 C 1231.107 860.126 1228.107 870.126 1178.107 887.126 C 1140.107 901.126 1175.107 914.126 1247.107 914.126 L 1322.107 914.126 L 1379.107 794.126 Z M 1941.107 683.126 C 1941.107 571.126 1942.107 562.126 1961.107 557.126 C 1972.107 554.126 1981.107 545.126 1981.107 538.126 C 1981.107 527.126 1961.107 524.126 1892.107 524.126 C 1806.107 524.126 1762.107 538.126 1810.107 551.126 C 1830.107 556.126 1831.107 563.126 1831.107 654.126 C 1831.107 744.126 1829.107 753.126 1811.107 759.126 C 1800.107 762.126 1791.107 769.126 1791.107 773.126 C 1791.107 780.126 1866.107 796.126 1929.107 803.126 C 1938.107 804.126 1941.107 774.126 1941.107 683.126 Z"/>
    <path d="M 1298.674 264.334 C 1276.674 243.334 1295.674 208.334 1325.674 212.334 C 1362.674 217.334 1358.674 279.334 1320.674 280.334 C 1316.674 280.334 1306.674 273.334 1298.674 264.334 Z"/>
    <path d="M 972.674 261.334 C 972.674 256.334 979.674 250.334 987.674 246.334 C 1010.674 238.334 1009.674 44.334 985.674 18.334 C 970.674 1.334 973.674 0.334 1079.674 0.334 L 1190.674 0.334 L 1195.674 28.334 C 1202.674 64.334 1198.674 66.334 1172.674 40.334 C 1157.674 25.334 1141.674 20.334 1116.674 22.334 L 1081.674 25.334 L 1080.674 134.334 C 1078.674 212.334 1082.674 245.334 1090.674 248.334 C 1122.674 258.334 1095.674 270.334 1037.674 270.334 C 1001.674 270.334 972.674 266.334 972.674 261.334 Z"/>
    <path d="M 1779.674 263.334 C 1746.674 259.334 1742.674 257.334 1753.674 243.334 C 1761.674 234.334 1768.674 190.334 1770.674 134.334 C 1774.674 53.334 1772.674 36.334 1757.674 20.334 C 1739.674 0.334 1740.674 0.334 1802.674 0.334 C 1852.674 0.334 1863.674 3.334 1854.674 12.334 C 1842.674 24.334 1837.674 116.334 1848.674 144.334 C 1856.674 165.334 1888.674 165.334 1896.674 144.334 C 1907.674 116.334 1902.674 24.334 1890.674 12.334 C 1881.674 3.334 1892.674 0.334 1943.674 0.334 C 1998.674 1.334 2005.674 2.334 1990.674 14.334 C 1976.674 24.334 1972.674 42.334 1972.674 92.334 C 1972.674 173.334 1958.674 194.334 1911.674 188.334 C 1892.674 185.334 1869.674 180.334 1860.674 176.334 C 1846.674 169.334 1843.674 176.334 1840.674 216.334 C 1837.674 267.334 1836.674 268.334 1779.674 263.334 Z"/>
    <path d="M 2115.674 230.334 C 2102.674 225.334 2092.674 212.334 2092.674 200.334 C 2092.674 189.334 2085.674 180.334 2077.674 180.334 C 2069.674 180.334 2062.674 176.334 2062.674 170.334 C 2062.674 165.334 2069.674 160.334 2077.674 160.334 C 2088.674 160.334 2092.674 147.334 2092.674 106.334 C 2092.674 25.334 2104.674 0.334 2144.674 0.334 C 2186.674 0.334 2222.674 10.334 2222.674 21.334 C 2222.674 26.334 2213.674 30.334 2202.674 30.334 C 2178.674 30.334 2175.674 37.334 2169.674 103.334 C 2166.674 139.334 2168.674 153.334 2178.674 156.334 C 2224.674 170.334 2227.674 173.334 2197.674 179.334 C 2173.674 184.334 2167.674 190.334 2167.674 210.334 C 2167.674 237.334 2149.674 244.334 2115.674 230.334 Z"/>
    <path d="M 1525.674 188.334 C 1494.674 180.334 1462.674 152.334 1462.674 133.334 C 1462.674 125.334 1474.674 107.334 1488.674 93.334 L 1515.674 66.334 L 1493.674 48.334 C 1477.674 36.334 1472.674 24.334 1477.674 10.334 C 1482.674 -3.666 1479.674 -9.666 1468.674 -9.666 C 1451.674 -9.666 1447.674 -36.666 1460.674 -55.666 C 1474.674 -77.666 1512.674 -89.666 1567.674 -89.666 C 1613.674 -89.666 1627.674 -85.666 1647.674 -64.666 C 1661.674 -51.666 1672.674 -34.666 1672.674 -27.666 C 1672.674 -1.666 1642.674 28.334 1609.674 35.334 C 1553.674 46.334 1541.674 51.334 1543.674 63.334 C 1544.674 70.334 1540.674 88.334 1533.674 105.334 C 1524.674 126.334 1524.674 141.334 1531.674 157.334 C 1551.674 200.334 1592.674 178.334 1592.674 125.334 C 1592.674 108.334 1587.674 89.334 1580.674 82.334 C 1561.674 63.334 1603.674 67.334 1631.674 86.334 C 1650.674 100.334 1653.674 109.334 1649.674 136.334 C 1644.674 165.334 1646.674 170.334 1663.674 170.334 C 1673.674 170.334 1682.674 174.334 1682.674 179.334 C 1682.674 191.334 1560.674 197.334 1525.674 188.334 Z M 1602.674 -35.666 C 1615.674 -49.666 1615.674 -52.666 1598.674 -65.666 C 1575.674 -82.666 1548.674 -83.666 1521.674 -69.666 C 1502.674 -58.666 1495.674 -29.666 1509.674 -15.666 C 1520.674 -4.666 1585.674 -18.666 1602.674 -35.666 Z"/>
    <path d="M 1300.674 183.334 C 1279.674 181.334 1262.674 175.334 1262.674 169.334 C 1262.674 164.334 1267.674 160.334 1272.674 160.334 C 1286.674 160.334 1285.674 27.334 1270.674 12.334 C 1261.674 3.334 1272.674 0.334 1321.674 0.334 C 1372.674 0.334 1382.674 3.334 1374.674 13.334 C 1368.674 20.334 1362.674 61.334 1360.674 105.334 C 1358.674 148.334 1353.674 184.334 1347.674 185.334 C 1342.674 186.334 1320.674 185.334 1300.674 183.334 Z"/>
    <path d="M 1530.851 367.878 C 1509.851 346.878 1510.851 330.878 1533.851 309.878 C 1558.851 286.878 1592.851 296.878 1600.851 329.878 C 1612.851 375.878 1563.851 401.878 1530.851 367.878 Z"/>
  </g>
</svg>